<?xml version="1.0" standalone="no"?>
<!DOCTYPE svg PUBLIC "-//W3C//DTD SVG 20010904//EN"
 "http://www.w3.org/TR/2001/REC-SVG-20010904/DTD/svg10.dtd">
<svg version="1.0" xmlns="http://www.w3.org/2000/svg"
 width="312.000000pt" height="312.000000pt" viewBox="0 0 312.000000 312.000000"
 preserveAspectRatio="xMidYMid meet">
<metadata>
Created by potrace 1.14, written by Peter Selinger 2001-2017
</metadata>
<g transform="translate(0.000000,312.000000) scale(0.100000,-0.100000)"
fill="#000000" stroke="none">
<path d="M1490 2964 c-119 -19 -312 -82 -410 -136 -259 -141 -478 -363 -599
-606 -115 -228 -162 -551 -117 -802 19 -110 26 -133 73 -258 38 -99 56 -123
24 -31 -11 30 -28 92 -38 139 -25 117 -24 361 1 480 51 238 164 454 325 623
183 192 389 314 650 385 90 25 110 26 321 27 204 0 234 -2 315 -23 296 -77
531 -238 708 -485 32 -45 62 -83 66 -85 3 -1 21 25 39 57 l33 60 -20 39 c-51
100 -231 291 -361 384 -94 66 -240 141 -346 177 -195 66 -451 87 -664 55z"/>
<path d="M2081 2528 c-35 -8 -56 -23 -103 -71 -32 -34 -58 -57 -58 -51 0 5 23
33 51 62 28 29 47 52 42 52 -32 0 -183 -131 -183 -158 0 -5 38 -10 84 -11 l85
-1 26 53 c30 57 85 129 85 109 0 -7 -18 -46 -41 -87 l-41 -75 61 0 61 0 0 95
c0 70 -3 95 -12 94 -7 -1 -33 -6 -57 -11z"/>
<path d="M2180 2446 l0 -96 44 0 c63 0 77 7 66 33 -14 38 -86 151 -98 155 -9
3 -12 -23 -12 -92z"/>
<path d="M2287 2445 c57 -85 57 -85 100 -85 l44 0 -17 32 c-29 56 -127 138
-166 138 -14 0 -5 -19 39 -85z"/>
<path d="M2360 2493 c18 -14 50 -50 71 -80 35 -47 69 -69 69 -44 0 20 -74 103
-114 126 -55 32 -66 32 -26 -2z"/>
<path d="M2491 2341 c-12 -8 -11 -15 3 -50 9 -23 16 -54 16 -69 0 -36 13 -55
36 -50 14 3 18 11 16 33 -9 86 -44 153 -71 136z"/>
<path d="M2233 2333 l-53 -4 0 -80 0 -80 88 3 87 3 -3 28 c-7 54 -37 132 -52
133 -8 0 -39 -1 -67 -3z"/>
<path d="M2355 2328 c-3 -8 1 -33 10 -57 8 -24 15 -54 15 -67 0 -26 27 -38 76
-32 27 3 29 6 27 46 -1 24 -10 60 -20 80 -16 33 -23 37 -61 40 -28 2 -44 -1
-47 -10z"/>
<path d="M1805 2318 c-13 -41 -25 -97 -25 -120 0 -23 4 -28 24 -28 22 0 24 6
34 72 6 39 9 75 6 80 -8 12 -34 9 -39 -4z"/>
<path d="M1866 2269 c-10 -104 -12 -99 44 -99 57 0 56 -2 64 93 l5 67 -53 0
-53 0 -7 -61z"/>
<path d="M2006 2278 c-3 -29 -6 -65 -6 -80 l0 -28 75 0 75 0 0 80 0 80 -69 0
-68 0 -7 -52z"/>
<path d="M2903 2238 c-229 -475 -583 -926 -927 -1185 -379 -285 -716 -333
-829 -119 -18 34 -22 58 -22 136 0 52 4 122 8 155 11 79 -3 63 -37 -40 -69
-210 -83 -364 -42 -450 28 -60 56 -87 117 -114 89 -39 157 -37 308 10 398 125
912 625 1249 1215 93 164 218 434 200 434 -2 0 -13 -19 -25 -42z"/>
<path d="M2917 2125 c-42 -79 -43 -83 -22 -153 38 -126 56 -240 57 -357 1
-131 -11 -214 -49 -345 -74 -254 -191 -440 -393 -625 -64 -58 -83 -85 -60 -85
47 0 288 233 372 360 172 259 235 481 225 790 -6 164 -17 238 -58 374 -36 121
-31 118 -72 41z"/>
<path d="M2000 2113 c0 -21 3 -62 6 -90 l7 -53 74 0 c64 0 74 2 69 16 -3 9 -6
49 -6 90 l0 74 -75 0 -75 0 0 -37z"/>
<path d="M2180 2060 l0 -91 72 3 72 3 13 60 c7 33 12 72 13 88 l0 27 -85 0
-85 0 0 -90z"/>
<path d="M2385 2123 c-10 -52 -28 -128 -33 -141 -3 -10 8 -12 49 -10 l54 3 17
60 c9 33 17 72 17 88 1 26 -1 27 -49 27 -46 0 -50 -2 -55 -27z"/>
<path d="M2507 2064 c-10 -48 -15 -89 -12 -92 11 -11 34 24 49 77 21 73 21
101 -2 101 -14 0 -21 -17 -35 -86z"/>
<path d="M1774 2123 c2 -10 11 -43 20 -73 8 -30 21 -64 29 -74 20 -27 38 -12
27 22 -5 15 -11 53 -15 85 -6 55 -7 57 -36 57 -24 0 -29 -4 -25 -17z"/>
<path d="M1853 2123 c3 -10 8 -40 12 -68 11 -85 11 -85 67 -85 l50 0 -6 38
c-3 20 -7 58 -8 85 l-2 47 -59 0 c-51 0 -58 -2 -54 -17z"/>
<path d="M948 1984 c-5 -4 -8 -15 -8 -25 0 -18 27 -29 76 -29 42 0 113 -26
148 -54 l29 -24 -37 -58 c-20 -33 -73 -116 -119 -185 -74 -113 -146 -224 -330
-510 -34 -52 -105 -163 -157 -245 -210 -329 -206 -325 -290 -367 -50 -25 -101
-41 -152 -49 -60 -10 -78 -16 -78 -29 0 -13 16 -17 83 -22 106 -9 647 -7 712
2 l50 6 -25 17 c-14 9 -56 26 -95 39 -38 12 -87 31 -109 41 -36 18 -38 22 -33
55 13 75 94 223 315 572 58 91 155 245 215 341 117 187 139 216 155 206 10 -6
198 -303 380 -598 42 -68 70 -103 81 -102 10 0 53 22 95 50 l78 49 -4 92 c-6
105 12 69 -209 420 -74 117 -152 237 -173 266 -42 58 -110 110 -166 128 -41
13 -422 25 -432 13z"/>
<path d="M1855 1929 c49 -61 73 -82 108 -100 20 -11 37 -15 37 -9 0 5 -3 10
-8 10 -11 0 -92 81 -92 93 0 6 30 -19 68 -55 54 -52 78 -68 124 -82 70 -20 88
-20 155 1 39 12 73 34 119 76 35 32 64 63 64 68 0 5 -22 9 -49 9 -45 0 -49 -2
-62 -32 -21 -51 -67 -97 -110 -108 -67 -18 -122 15 -192 115 -17 23 -25 26
-75 25 -32 -1 -68 2 -82 6 l-25 7 20 -24z"/>
<path d="M2185 1935 c-2 -5 -5 -36 -8 -67 -3 -55 -2 -58 19 -58 22 0 66 47 94
99 10 19 10 25 -1 32 -19 11 -101 7 -104 -6z"/>
<path d="M2456 1934 c-9 -8 -16 -19 -16 -24 0 -5 -19 -28 -41 -50 -62 -61 -39
-60 26 1 65 61 84 89 61 89 -8 0 -22 -7 -30 -16z"/>
<path d="M2055 1913 c28 -47 82 -106 91 -100 5 3 7 32 6 66 l-4 61 -54 0 -55
0 16 -27z"/>
<path d="M2240 1698 c-30 -5 -94 -7 -142 -4 l-88 6 0 -280 c0 -153 4 -281 8
-284 5 -3 77 60 160 140 l152 146 0 144 c0 163 9 149 -90 132z"/>
<path d="M2168 1035 l-156 -152 -4 -176 c-3 -160 -5 -178 -24 -204 -31 -41
-70 -61 -160 -79 -91 -18 -108 -29 -80 -50 16 -12 83 -14 390 -13 401 1 471 5
471 29 0 10 -24 20 -81 32 -86 17 -151 45 -175 74 -11 14 -15 82 -19 354 l-5
338 -157 -153z"/>
</g>
</svg>
